<svg xmlns="http://www.w3.org/2000/svg" xmlns:xlink="http://www.w3.org/1999/xlink" width="500" zoomAndPan="magnify" viewBox="0 0 375 374.999991" height="500" preserveAspectRatio="xMidYMid meet" version="1.0"><defs><clipPath id="id1"><path d="M 134.589844 37.5 L 240.339844 37.5 L 240.339844 187.5 L 134.589844 187.5 Z M 134.589844 37.5 " clip-rule="nonzero"/></clipPath><clipPath id="id2"><path d="M 135 48 L 240.339844 48 L 240.339844 187.5 L 135 187.5 Z M 135 48 " clip-rule="nonzero"/></clipPath></defs><path fill="#61d7a8" d="M 260.726562 341.226562 L 325.074219 254.921875 L 305.175781 198.484375 L 69.894531 198.484375 L 50.15625 254.476562 Z M 260.726562 341.226562 " fill-opacity="1" fill-rule="nonzero"/><path fill="#00ab94" d="M 187.535156 198.484375 L 187.535156 311.074219 L 260.726562 341.226562 L 325.074219 254.921875 L 305.175781 198.484375 Z M 187.535156 198.484375 " fill-opacity="1" fill-rule="nonzero"/><path fill="#61d7a8" d="M 204.964844 375 L 260.726562 341.226562 L 99.621094 278.320312 L 110.613281 375 Z M 204.964844 375 " fill-opacity="1" fill-rule="nonzero"/><path fill="#00ab94" d="M 187.535156 375 L 204.964844 375 L 260.726562 341.226562 L 187.535156 312.648438 Z M 187.535156 375 " fill-opacity="1" fill-rule="nonzero"/><path fill="#61d7a8" d="M 99.621094 278.320312 L 42.757812 275.195312 L 7.105469 375 L 88.632812 375 Z M 99.621094 278.320312 " fill-opacity="1" fill-rule="nonzero"/><path fill="#00ab94" d="M 236.042969 375 L 367.964844 375 L 333.25 277.816406 L 308.417969 287.109375 Z M 236.042969 375 " fill-opacity="1" fill-rule="nonzero"/><path fill="#ffda2d" d="M 236.042969 375 L 333.25 277.816406 L 325.074219 254.921875 L 260.726562 319.253906 L 50.15625 254.476562 L 42.757812 275.195312 L 88.632812 289.304688 L 88.632812 375 L 110.613281 375 L 110.613281 296.066406 L 243.136719 336.832031 L 204.964844 375 Z M 236.042969 375 " fill-opacity="1" fill-rule="nonzero"/><path fill="#eebf00" d="M 260.726562 319.253906 L 187.535156 296.738281 L 187.535156 319.730469 L 243.136719 336.832031 L 204.964844 375 L 236.042969 375 L 333.25 277.816406 L 325.074219 254.921875 Z M 260.726562 319.253906 " fill-opacity="1" fill-rule="nonzero"/><path fill="#ff641a" d="M 187.535156 0 C 133.03125 0 88.632812 44.382812 88.632812 98.875 C 88.632812 117.554688 93.90625 135.789062 104.457031 152.488281 L 187.535156 260.449219 L 271.273438 151.609375 C 281.164062 135.789062 286.4375 117.554688 286.4375 98.875 C 286.4375 44.382812 242.042969 0 187.535156 0 Z M 187.535156 142.820312 C 163.359375 142.820312 143.578125 123.046875 143.578125 98.875 C 143.578125 74.707031 163.359375 54.929688 187.535156 54.929688 C 211.710938 54.929688 231.492188 74.707031 231.492188 98.875 C 231.492188 123.046875 211.710938 142.820312 187.535156 142.820312 Z M 187.535156 142.820312 " fill-opacity="1" fill-rule="nonzero"/><path fill="#f03800" d="M 286.4375 98.875 C 286.4375 117.554688 281.164062 135.789062 271.273438 151.609375 L 187.535156 260.449219 L 187.535156 142.820312 C 211.710938 142.820312 231.492188 123.046875 231.492188 98.875 C 231.492188 74.707031 211.710938 54.929688 187.535156 54.929688 L 187.535156 0 C 242.042969 0 286.4375 44.382812 286.4375 98.875 Z M 286.4375 98.875 " fill-opacity="1" fill-rule="nonzero"/><g clip-path="url(#id1)"><path fill="#f7dece" d="M 210.121094 48.144531 C 202.851562 41.515625 195.007812 37.550781 187.464844 37.550781 C 162.679688 37.550781 134.589844 79.925781 134.589844 121.316406 C 134.589844 125.617188 134.9375 129.691406 135.480469 133.621094 C 140.148438 167.539062 163.773438 187.449219 187.464844 187.449219 C 213.902344 187.449219 240.339844 162.710938 240.339844 121.316406 C 240.339844 92.523438 226.742188 63.292969 210.121094 48.144531 Z M 210.121094 48.144531 " fill-opacity="1" fill-rule="nonzero"/></g><g clip-path="url(#id2)"><path fill="#e0aa94" d="M 210.121094 48.144531 C 222.9375 63.660156 232.628906 87.902344 232.628906 111.863281 C 232.628906 151.582031 207.636719 175.320312 182.644531 175.320312 C 162.636719 175.320312 142.660156 160.070312 135.476562 133.617188 C 140.148438 167.539062 163.773438 187.449219 187.464844 187.449219 C 213.902344 187.449219 240.339844 162.710938 240.339844 121.316406 C 240.339844 92.523438 226.742188 63.292969 210.121094 48.144531 Z M 210.121094 48.144531 " fill-opacity="1" fill-rule="nonzero"/></g></svg>